<svg width="20" height="21" viewBox="0 0 20 21" fill="none" xmlns="http://www.w3.org/2000/svg">
<path d="M3.20884 10.332C2.43187 8.97715 2.05671 7.87088 1.8305 6.74948C1.49593 5.09097 2.26157 3.47086 3.52992 2.43711C4.06597 2.0002 4.68047 2.14948 4.99746 2.71816L5.71309 4.00203C6.28032 5.01966 6.56394 5.52847 6.50768 6.06791C6.45144 6.60735 6.06894 7.0467 5.30395 7.9254L3.20884 10.332ZM3.20884 10.332C4.78151 13.0742 7.24951 15.5436 9.99488 17.118M9.99488 17.118C11.3497 17.895 12.456 18.2702 13.5774 18.4964C15.2359 18.8309 16.856 18.0653 17.8897 16.7969C18.3266 16.2609 18.1774 15.6464 17.6087 15.3294L16.3248 14.6138C15.3072 14.0465 14.7984 13.763 14.2589 13.8192C13.7195 13.8754 13.2801 14.2579 12.4015 15.0229L9.99488 17.118Z" stroke="#ABABAB" stroke-width="1.22936" stroke-linejoin="round"/>
</svg>
