<svg width="20" height="20" viewBox="0 0 20 20" fill="none" xmlns="http://www.w3.org/2000/svg">
<path d="M1.75195 5.04584L7.41767 8.25608C9.50641 9.43956 10.3889 9.43956 12.4777 8.25608L18.1434 5.04584" stroke="#ABABAB" stroke-width="1.22936" stroke-linejoin="round"/>
<path d="M1.76488 11.1727C1.81845 13.6851 1.84525 14.9413 2.77229 15.8719C3.69932 16.8025 4.98953 16.8348 7.56995 16.8997C9.16031 16.9397 10.735 16.9397 12.3254 16.8997C14.9058 16.8348 16.196 16.8025 17.1231 15.8719C18.0501 14.9413 18.0769 13.6851 18.1304 11.1727C18.1477 10.3648 18.1477 9.5618 18.1304 8.75395C18.0769 6.24152 18.0501 4.9853 17.1231 4.05474C16.196 3.12417 14.9058 3.09176 12.3254 3.02692C10.735 2.98696 9.16031 2.98696 7.56995 3.02691C4.98953 3.09174 3.69932 3.12415 2.77228 4.05473C1.84524 4.9853 1.81845 6.24151 1.76487 8.75395C1.74764 9.5618 1.74765 10.3648 1.76488 11.1727Z" stroke="#ABABAB" stroke-width="1.22936" stroke-linejoin="round"/>
</svg>
