<svg width="20" height="13" viewBox="0 0 20 13" fill="none" xmlns="http://www.w3.org/2000/svg">
<path d="M10.1231 0.908203C5.88636 0.908203 2.26817 3.37054 0.802246 6.84631C2.26817 10.3221 5.88636 12.7844 10.1231 12.7844C14.3599 12.7844 17.9781 10.3221 19.444 6.84631C17.9781 3.37054 14.3599 0.908203 10.1231 0.908203ZM10.1231 10.805C7.78443 10.805 5.88636 9.03153 5.88636 6.84631C5.88636 4.66109 7.78443 2.88757 10.1231 2.88757C12.4618 2.88757 14.3599 4.66109 14.3599 6.84631C14.3599 9.03153 12.4618 10.805 10.1231 10.805ZM10.1231 4.47107C8.71651 4.47107 7.58106 5.53201 7.58106 6.84631C7.58106 8.16061 8.71651 9.22155 10.1231 9.22155C11.5297 9.22155 12.6652 8.16061 12.6652 6.84631C12.6652 5.53201 11.5297 4.47107 10.1231 4.47107Z" fill="#C4C4C4"/>
</svg>
